<?xml version="1.0" standalone="no"?>
<!DOCTYPE svg PUBLIC "-//W3C//DTD SVG 20010904//EN"
 "http://www.w3.org/TR/2001/REC-SVG-20010904/DTD/svg10.dtd">
<svg version="1.0" xmlns="http://www.w3.org/2000/svg"
 width="499.000000pt" height="169.000000pt" viewBox="0 0 499.000000 169.000000"
 preserveAspectRatio="xMidYMid meet">
<metadata>
Created by potrace 1.15, written by Peter Selinger 2001-2017
</metadata>
<g transform="translate(0.000000,169.000000) scale(0.100000,-0.100000)"
fill="#000000" stroke="none">
<path d="M570 1679 c-14 -4 -148 -7 -298 -8 l-273 -1 3 -42 3 -43 268 -3 c166
-1 267 -6 267 -12 0 -6 -100 -10 -270 -10 l-270 0 0 -45 0 -45 293 0 c192 0
287 -4 277 -10 -9 -6 -131 -10 -292 -10 l-278 0 0 -45 0 -45 243 0 c160 0 237
-4 227 -10 -9 -6 -113 -10 -243 -10 l-228 0 3 -42 3 -43 213 -3 c130 -1 212
-6 212 -12 0 -6 -81 -10 -215 -10 l-215 0 0 -410 1 -410 102 -2 102 -2 -100
-5 -100 -6 -1 -48 -1 -47 86 -2 c77 -2 79 -2 21 -5 -105 -5 -110 -7 -110 -53
l0 -40 56 0 c34 0 53 -4 49 -10 -3 -5 -28 -10 -56 -10 l-49 0 0 -55 c0 -49 2
-55 20 -55 43 0 140 67 140 96 0 6 6 14 14 17 15 6 47 85 71 172 8 27 64 228
125 445 61 217 112 403 113 412 2 10 6 21 10 24 4 4 7 21 7 37 0 34 12 30 14
-5 1 -20 5 -22 54 -19 32 1 52 -2 52 -8 0 -6 -20 -11 -45 -11 -51 0 -52 -3
-34 -76 9 -33 14 -42 21 -32 8 10 9 10 6 -2 -3 -8 -15 -56 -28 -107 -13 -51
-27 -90 -31 -87 -4 2 -5 -6 -1 -18 4 -16 2 -19 -8 -13 -9 6 -11 4 -5 -4 10
-17 -45 -222 -58 -214 -6 3 -7 1 -3 -5 8 -14 -41 -200 -59 -222 -23 -29 -6
-40 60 -40 68 0 72 4 91 83 l6 27 144 0 144 0 0 24 c0 24 -14 86 -125 556
-111 471 -108 459 -95 518 13 60 7 73 -30 61z"/>
<path d="M1706 1683 c-4 -5 -139 -10 -299 -13 l-292 -5 2 -34 c0 -18 9 -62 19
-97 l19 -64 340 0 c231 -1 335 -4 323 -11 -11 -6 -138 -9 -338 -7 l-321 3 6
-40 c4 -22 11 -53 16 -70 8 -26 58 -233 140 -577 14 -60 26 -93 31 -85 4 6 5
-3 1 -22 -5 -27 -3 -32 7 -26 9 5 11 4 6 -4 -7 -11 16 -128 49 -246 8 -27 21
-86 30 -129 9 -44 18 -83 21 -88 3 -4 7 -18 9 -30 6 -32 37 -59 76 -67 26 -5
35 -13 41 -39 l9 -32 70 0 c50 0 69 4 68 13 -5 41 2 57 25 57 12 0 38 10 57
23 l34 23 3 704 c2 638 1 705 -14 721 -9 10 -19 17 -23 16 -3 0 -17 4 -31 11
-21 11 -22 11 -9 0 13 -11 -41 -13 -312 -13 -255 0 -329 3 -329 12 0 10 69 13
297 15 l297 3 3 53 c3 39 0 52 -10 52 -8 0 -17 -3 -21 -7z"/>
<path d="M3985 1680 c-11 -5 -255 -9 -550 -8 -451 1 -530 -1 -530 -13 0 -8 11
-15 25 -17 14 -2 61 -21 105 -43 83 -40 105 -46 105 -29 0 7 143 10 410 10
267 0 410 -3 410 -10 0 -7 -143 -10 -409 -10 -244 0 -412 -4 -416 -9 -3 -5 5
-20 17 -34 58 -61 88 -110 88 -146 0 -15 30 -16 332 -13 182 1 328 -1 324 -5
-4 -5 -150 -10 -324 -13 l-317 -5 0 -40 0 -40 305 -5 c168 -3 298 -8 290 -12
-8 -5 -143 -9 -299 -10 l-284 -3 -11 -46 c-39 -153 -199 -278 -381 -298 -52
-5 -60 -9 -63 -28 -3 -18 1 -23 20 -23 44 0 172 -41 240 -77 75 -39 156 -120
173 -172 3 -12 10 -19 14 -16 5 2 6 -8 4 -23 -4 -21 -2 -24 6 -12 9 11 10 5 5
-27 -4 -23 -4 -54 0 -68 l6 -25 173 -2 172 -2 -167 -3 -168 -3 0 -26 c0 -14
-3 -23 -8 -21 -4 3 -7 -8 -7 -24 l-1 -29 161 -2 160 -2 -157 -6 -157 -5 -24
-37 c-14 -20 -23 -39 -19 -42 3 -3 70 -6 149 -6 94 0 142 -4 138 -10 -4 -6
-67 -10 -156 -10 -92 0 -149 -4 -149 -10 0 -5 -19 -23 -42 -40 -22 -16 -36
-30 -29 -30 7 0 9 -4 6 -10 -3 -6 38 -11 107 -13 l113 -3 -127 -2 c-109 -2
-132 -5 -163 -23 -19 -12 -54 -27 -78 -34 -38 -12 -18 -14 186 -14 177 -1 228
2 226 11 -5 39 2 58 21 58 43 0 140 67 140 96 0 6 6 14 14 17 15 6 76 157 76
188 0 11 4 27 10 37 8 14 95 325 226 802 13 47 24 82 25 78 1 -5 3 -12 4 -18
1 -5 3 -14 4 -19 0 -4 24 -6 51 -3 33 3 50 1 50 -7 0 -6 -18 -11 -45 -11 -50
0 -49 1 -34 -71 8 -36 14 -47 20 -38 15 24 10 -5 -15 -92 -13 -46 -41 -146
-61 -221 -21 -76 -42 -135 -46 -132 -5 3 -6 -2 -3 -10 5 -14 -27 -145 -49
-196 -23 -55 -19 -60 47 -60 68 0 79 9 91 74 l7 36 144 0 144 0 0 29 c0 28
-53 263 -149 663 -78 327 -83 354 -72 395 21 76 13 94 -34 73z m5 -220 c-21
-13 -770 -13 -770 0 0 6 137 10 393 10 257 0 387 -4 377 -10z"/>
<path d="M4752 1673 l-224 -3 7 -33 c3 -17 17 -76 31 -130 14 -54 26 -110 27
-124 l2 -25 193 2 c132 0 192 -3 187 -10 -4 -6 -73 -10 -187 -10 l-180 0 6
-42 c8 -53 31 -120 38 -113 3 3 3 -6 0 -21 -3 -17 -1 -25 5 -21 6 4 8 -4 5
-20 -3 -17 -1 -24 6 -19 6 4 8 -1 5 -14 -6 -24 36 -202 47 -195 4 2 5 -7 2
-22 -4 -19 -2 -24 8 -18 9 5 11 4 6 -4 -4 -6 -5 -30 -1 -53 5 -30 10 -37 17
-27 7 10 8 8 3 -8 -3 -12 5 -66 19 -120 13 -54 40 -170 60 -258 20 -88 41
-174 47 -192 5 -18 12 -42 14 -55 6 -28 49 -68 76 -68 19 0 19 14 19 805 0
443 -3 804 -7 803 -5 -2 -108 -4 -231 -5z"/>
<path d="M2401 1515 l-1 -50 142 3 c98 1 138 -1 128 -8 -8 -5 -68 -10 -132
-10 l-118 0 -1 -27 -1 -28 -8 30 c-7 26 -8 24 -9 -20 l-1 -50 146 3 c100 2
144 0 139 -7 -4 -7 -56 -11 -136 -11 l-129 0 -1 -27 -1 -28 -8 30 c-7 25 -8
22 -7 -20 l0 -50 139 3 c92 2 138 0 138 -7 0 -7 -46 -11 -130 -11 l-130 0 -2
-387 -3 -388 -5 390 -6 390 -1 -411 -2 -412 137 -1 c75 -1 138 -4 141 -6 2 -3
-55 -5 -127 -5 l-132 0 -1 -27 -1 -28 -8 30 c-7 25 -8 21 -7 -22 l1 -53 140
-2 141 -2 -132 -3 -133 -4 -1 -27 -1 -27 -8 30 c-7 25 -8 22 -7 -20 l0 -50
130 3 c89 2 127 0 122 -7 -4 -7 -51 -11 -121 -11 l-114 0 -1 -27 -1 -28 -8 30
c-7 25 -8 21 -7 -22 0 -29 3 -51 6 -49 3 2 26 0 51 -4 l45 -7 -42 -2 c-40 -1
-43 -3 -44 -28 l-1 -28 -8 30 c-8 30 -8 30 -9 -7 l-1 -38 75 0 75 0 0 34 c0
32 3 34 46 45 65 17 94 38 115 89 17 38 19 70 19 255 0 117 -5 229 -10 249
-14 49 -56 98 -83 97 -27 0 -129 29 -104 30 14 1 17 10 17 50 l0 50 53 15 c59
17 98 53 116 105 12 38 14 380 2 421 -4 14 -13 24 -19 23 -6 -2 -9 4 -5 13 8
20 -34 63 -58 59 -10 -2 -18 1 -16 7 1 6 -4 13 -12 16 -8 2 -11 0 -7 -6 4 -7
-4 -8 -26 -1 -18 5 -61 9 -95 9 -58 0 -63 -2 -64 -22 -1 -22 -1 -22 -9 2 -6
20 -8 15 -9 -25z"/>
<path d="M4229 409 c-7 -5 -109 -9 -226 -9 -211 0 -212 0 -219 -22 -3 -13 -12
-30 -20 -38 -30 -35 -5 -40 251 -43 l250 -2 -252 -3 c-170 -1 -253 -5 -253
-13 0 -5 -3 -8 -7 -6 -5 3 -9 -7 -10 -21 -9 -93 3 -123 62 -157 41 -25 80 -32
87 -17 2 4 68 5 148 1 l145 -5 -147 -2 c-146 -2 -148 -2 -148 -24 0 -19 2 -20
11 -8 8 12 9 9 5 -12 l-6 -28 165 0 c103 0 164 4 160 10 -11 17 7 60 25 60 9
0 29 9 44 21 23 18 26 27 26 82 -1 34 -7 80 -15 102 -8 22 -17 59 -21 83 -7
45 -30 67 -55 51z"/>
<path d="M585 400 c-210 -5 -220 -6 -223 -25 -2 -11 -9 -26 -15 -34 -33 -40
-27 -41 241 -43 l257 -2 -260 -6 c-143 -3 -261 -7 -262 -8 -1 -1 0 -9 3 -17 4
-8 1 -22 -6 -30 -6 -8 -9 -23 -5 -34 3 -11 8 -29 10 -41 6 -31 23 -48 66 -71
39 -20 75 -25 81 -11 2 4 68 5 148 1 l145 -5 -147 -2 c-146 -2 -148 -2 -148
-24 0 -19 2 -20 11 -8 8 12 9 9 5 -12 l-6 -28 165 0 c103 0 164 4 160 10 -11
17 7 60 25 60 9 0 29 11 44 25 31 29 35 85 11 174 -8 31 -19 75 -25 99 -9 35
-15 42 -33 40 -12 -1 -121 -5 -242 -8z"/>
</g>
</svg>
